<svg id="Calque_1" data-name="Calque 1" xmlns="http://www.w3.org/2000/svg" viewBox="0 0 315.62 139.98">
    <defs>
        <style>
            .cls-1,
            .cls-2 {
                fill: #fff;
            }

            .cls-1 {
                stroke: #fff;
                stroke-miterlimit: 10;
                stroke-width: 2.04px;
            }
        </style>
    </defs>
    <path class="cls-1"
        d="M-668.06,682.51a21.05,21.05,0,0,1-8.33-1.63,20.52,20.52,0,0,1-6.65-4.46,20.72,20.72,0,0,1-4.4-6.67,21.35,21.35,0,0,1-1.6-8.22,21.28,21.28,0,0,1,1.6-8.22,20.77,20.77,0,0,1,4.4-6.68,20.65,20.65,0,0,1,6.65-4.45,21.05,21.05,0,0,1,8.33-1.63,21.05,21.05,0,0,1,8.33,1.63,20.55,20.55,0,0,1,6.65,4.45,20.6,20.6,0,0,1,4.4,6.68,21.1,21.1,0,0,1,1.6,8.22,21.17,21.17,0,0,1-1.6,8.22,20.56,20.56,0,0,1-4.4,6.67,20.41,20.41,0,0,1-6.65,4.46A21.05,21.05,0,0,1-668.06,682.51Zm0-7.18a13.68,13.68,0,0,0,5.25-1,13.28,13.28,0,0,0,4.26-2.81,12.58,12.58,0,0,0,2.86-4.34,14.94,14.94,0,0,0,1-5.64,14.87,14.87,0,0,0-1-5.64,12.72,12.72,0,0,0-2.86-4.35,13.25,13.25,0,0,0-4.26-2.8,13.49,13.49,0,0,0-5.25-1,13.41,13.41,0,0,0-5.24,1,13.3,13.3,0,0,0-4.27,2.8,13,13,0,0,0-2.86,4.35,14.86,14.86,0,0,0-1,5.64,14.94,14.94,0,0,0,1,5.64,12.87,12.87,0,0,0,2.86,4.34,13.32,13.32,0,0,0,4.27,2.81A13.59,13.59,0,0,0-668.06,675.33Z"
        transform="translate(690.06 -543.54)" />
    <path class="cls-1"
        d="M-641.78,647.39a5.7,5.7,0,0,0,2.86-.61,3.62,3.62,0,0,0,1.63-2.53,5.43,5.43,0,0,1-.12-1c0-.26-.07-.41-.22-.44l-.46.33a3.14,3.14,0,0,1-1,.17,2.85,2.85,0,0,1-1.93-.73,2.36,2.36,0,0,1-.86-1.89,3.68,3.68,0,0,1,.82-2.47,3,3,0,0,1,2.46-1,3.13,3.13,0,0,1,2.52,1.2,4.85,4.85,0,0,1,1,3.17q0,6.74-6.73,6.74Z"
        transform="translate(690.06 -543.54)" />
    <path class="cls-2"
        d="M-628.13,641.45h14.64a15.08,15.08,0,0,1,5.5.95,12.48,12.48,0,0,1,4.24,2.64,11.64,11.64,0,0,1,2.72,4,13.34,13.34,0,0,1,.95,5.07,10.53,10.53,0,0,1-.67,3.79,11.58,11.58,0,0,1-1.85,3.2,14.07,14.07,0,0,1-2.75,2.52,13.88,13.88,0,0,1-3.31,1.71l-.06.39,10.77,15.43v.45h-8.69L-617,666.52h-3.53v15.09h-7.58Zm14.59,18.11a5.87,5.87,0,0,0,4.23-1.57,5.22,5.22,0,0,0,1.66-4,6.1,6.1,0,0,0-.37-2.07,5.18,5.18,0,0,0-1.09-1.8,5.58,5.58,0,0,0-1.82-1.26,6.19,6.19,0,0,0-2.5-.48h-7.12v11.16Z"
        transform="translate(690.06 -543.54)" />
    <path class="cls-2"
        d="M-545.52,641.27h8.81l16.15,26.93h.45l-.45-7.74V641.27H-513v40.17h-8l-17-28.45h-.45l.45,7.75v20.7h-7.46Z"
        transform="translate(690.06 -543.54)" />
    <path class="cls-2"
        d="M-505,641.27h13.58a23.9,23.9,0,0,1,8.58,1.46,18.56,18.56,0,0,1,6.51,4.12,18,18,0,0,1,4.12,6.37,22.26,22.26,0,0,1,1.43,8.13,22.43,22.43,0,0,1-1.43,8.19,17.67,17.67,0,0,1-4.12,6.34,18.66,18.66,0,0,1-6.51,4.1,23.9,23.9,0,0,1-8.58,1.46H-505Zm13.24,33a16.89,16.89,0,0,0,5.84-.92,11.44,11.44,0,0,0,4.2-2.61,10.59,10.59,0,0,0,2.53-4.07,15.8,15.8,0,0,0,.84-5.3,15.88,15.88,0,0,0-.84-5.3,10.55,10.55,0,0,0-2.53-4.06,11.18,11.18,0,0,0-4.2-2.61,16.88,16.88,0,0,0-5.84-.93h-5.66v25.8Z"
        transform="translate(690.06 -543.54)" />
    <path class="cls-2"
        d="M-443.57,682.33a21.19,21.19,0,0,1-8.33-1.62,20.46,20.46,0,0,1-6.65-4.46,20.6,20.6,0,0,1-4.4-6.68,21.1,21.1,0,0,1-1.6-8.22,21.08,21.08,0,0,1,1.6-8.21,20.5,20.5,0,0,1,4.4-6.68A20.31,20.31,0,0,1-451.9,642a21.19,21.19,0,0,1,8.33-1.63,21.26,21.26,0,0,1,8.33,1.63,20.37,20.37,0,0,1,6.64,4.46,20.68,20.68,0,0,1,4.41,6.68,21.26,21.26,0,0,1,1.59,8.21,21.27,21.27,0,0,1-1.59,8.22,20.79,20.79,0,0,1-4.41,6.68,20.53,20.53,0,0,1-6.64,4.46A21.26,21.26,0,0,1-443.57,682.33Zm0-7.18a13.44,13.44,0,0,0,5.24-1,13.15,13.15,0,0,0,4.26-2.8,12.72,12.72,0,0,0,2.86-4.35,14.68,14.68,0,0,0,1-5.64,14.75,14.75,0,0,0-1-5.64,12.68,12.68,0,0,0-2.86-4.34,13.17,13.17,0,0,0-4.26-2.81,13.63,13.63,0,0,0-5.24-1,13.64,13.64,0,0,0-5.25,1,13.17,13.17,0,0,0-4.26,2.81,12.68,12.68,0,0,0-2.86,4.34,14.75,14.75,0,0,0-1,5.64,14.68,14.68,0,0,0,1,5.64,12.72,12.72,0,0,0,2.86,4.35,13.15,13.15,0,0,0,4.26,2.8A13.46,13.46,0,0,0-443.57,675.15Z"
        transform="translate(690.06 -543.54)" />
    <path class="cls-2"
        d="M-414.44,641.27H-407l12.29,21.26h.45L-382,641.27h7.52v40.17H-382V661.63l.45-6.73H-382l-10.21,18h-4.54l-10.27-18h-.45l.45,6.73v19.81h-7.46Z"
        transform="translate(690.06 -543.54)" />
    <path class="cls-2"
        d="M-571.79,640.79l-.19-.42-.21.42-20.65,41.89h10.71l1.77-3.42h16.74l1.77,3.42h10.71ZM-578.28,673l6-13.42.34-.75L-565.7,673Z"
        transform="translate(690.06 -543.54)" />
    <path class="cls-2"
        d="M-506.09,543.54h-46.38a8.73,8.73,0,0,0-8.7,8.71v53.23a8.73,8.73,0,0,0,8.7,8.7h46.38a8.73,8.73,0,0,0,8.7-8.7V552.25A8.73,8.73,0,0,0-506.09,543.54Zm-37.11,58.6a4.82,4.82,0,0,1-4.82-4.82,4.82,4.82,0,0,1,4.82-4.82,4.82,4.82,0,0,1,4.82,4.82A4.82,4.82,0,0,1-543.2,602.14Zm0-18.46a4.82,4.82,0,0,1-4.82-4.82,4.82,4.82,0,0,1,4.82-4.81,4.82,4.82,0,0,1,4.82,4.81A4.82,4.82,0,0,1-543.2,583.68Zm0-18.46A4.82,4.82,0,0,1-548,560.4a4.82,4.82,0,0,1,4.82-4.81,4.82,4.82,0,0,1,4.82,4.81A4.82,4.82,0,0,1-543.2,565.22Zm27.83,36.92a4.82,4.82,0,0,1-4.81-4.82,4.82,4.82,0,0,1,4.81-4.82,4.82,4.82,0,0,1,4.82,4.82A4.82,4.82,0,0,1-515.37,602.14Zm0-18.46a4.82,4.82,0,0,1-4.81-4.82,4.82,4.82,0,0,1,4.81-4.81,4.82,4.82,0,0,1,4.82,4.81A4.82,4.82,0,0,1-515.37,583.68Zm0-18.46a4.82,4.82,0,0,1-4.81-4.82,4.82,4.82,0,0,1,4.81-4.81,4.82,4.82,0,0,1,4.82,4.81A4.82,4.82,0,0,1-515.37,565.22Z"
        transform="translate(690.06 -543.54)" />
</svg>