<svg id="Calque_1" data-name="Calque 1" xmlns="http://www.w3.org/2000/svg" viewBox="0 0 315.62 139.98">
    <defs>
        <style>
            .cls-2 {
                fill: #fff;
            }
        </style>
    </defs>
    <path class="cls-2"
        d="M-506.09,543.54h-46.38a8.73,8.73,0,0,0-8.7,8.71v53.23a8.73,8.73,0,0,0,8.7,8.7h46.38a8.73,8.73,0,0,0,8.7-8.7V552.25A8.73,8.73,0,0,0-506.09,543.54Zm-37.11,58.6a4.82,4.82,0,0,1-4.82-4.82,4.82,4.82,0,0,1,4.82-4.82,4.82,4.82,0,0,1,4.82,4.82A4.82,4.82,0,0,1-543.2,602.14Zm0-18.46a4.82,4.82,0,0,1-4.82-4.82,4.82,4.82,0,0,1,4.82-4.81,4.82,4.82,0,0,1,4.82,4.81A4.82,4.82,0,0,1-543.2,583.68Zm0-18.46A4.82,4.82,0,0,1-548,560.4a4.82,4.82,0,0,1,4.82-4.81,4.82,4.82,0,0,1,4.82,4.81A4.82,4.82,0,0,1-543.2,565.22Zm27.83,36.92a4.82,4.82,0,0,1-4.81-4.82,4.82,4.82,0,0,1,4.81-4.82,4.82,4.82,0,0,1,4.82,4.82A4.82,4.82,0,0,1-515.37,602.14Zm0-18.46a4.82,4.82,0,0,1-4.81-4.82,4.82,4.82,0,0,1,4.81-4.81,4.82,4.82,0,0,1,4.82,4.81A4.82,4.82,0,0,1-515.37,583.68Zm0-18.46a4.82,4.82,0,0,1-4.81-4.82,4.82,4.82,0,0,1,4.81-4.81,4.82,4.82,0,0,1,4.82,4.81A4.82,4.82,0,0,1-515.37,565.22Z"
        transform="translate(690.06 -543.54)" />
</svg>