<svg width="58" height="61" viewBox="0 0 58 61" fill="none" xmlns="http://www.w3.org/2000/svg">
<path d="M58 29.7V29.91C57.9652 31.4511 57.8248 32.988 57.58 34.51C56.6418 40.1922 53.9983 45.4549 50 49.6C47.9911 51.7012 45.6664 53.4759 43.11 54.86L44.99 58.42C45.0988 58.6252 45.1482 58.8566 45.1328 59.0884C45.1174 59.3201 45.0377 59.5429 44.9027 59.7319C44.7677 59.9209 44.5827 60.0686 44.3685 60.1583C44.1543 60.248 43.9194 60.2763 43.69 60.24L30.79 58.09C30.6007 58.0573 30.4215 57.9813 30.2663 57.8681C30.1111 57.755 29.9841 57.6075 29.8951 57.4373C29.8061 57.2671 29.7576 57.0786 29.7532 56.8866C29.7489 56.6945 29.7888 56.5041 29.87 56.33L35.37 44.48C35.466 44.268 35.6197 44.0873 35.8136 43.9586C36.0075 43.8298 36.2336 43.7582 36.4663 43.752C36.6989 43.7457 36.9285 43.805 37.129 43.9232C37.3295 44.0413 37.4927 44.2135 37.6 44.42L39.85 48.69C40.4619 48.3542 41.056 47.9871 41.63 47.59C41.98 47.37 42.31 47.13 42.63 46.89L42.71 46.84C42.6517 46.899 42.5881 46.9526 42.52 47C42.72 46.89 43 46.64 42.76 46.79L42.89 46.68C43.51 46.16 44.1099 45.62 44.6899 45.04C45.2699 44.46 45.78 43.9 46.28 43.29L46.36 43.2V43.15L46.4301 43.06C46.6401 42.75 46.86 42.46 47.07 42.14C47.8678 40.9509 48.5637 39.6964 49.15 38.39C49.8715 36.6057 50.3817 34.743 50.67 32.84C50.67 33 50.67 33.15 50.67 33.3C50.67 32.99 50.76 32.67 50.79 32.37C50.79 32.53 50.79 32.68 50.72 32.84C50.832 31.8673 50.8888 30.8891 50.89 29.91C50.8866 28.9346 50.8331 27.9599 50.73 26.99C50.73 27.06 50.73 27.14 50.73 27.22C50.73 26.99 50.67 26.76 50.63 26.52L50.6899 26.99C50.3888 25.067 49.8689 23.1848 49.14 21.38C48.5515 20.0779 47.8558 18.8269 47.0601 17.64C46.8301 17.3 46.59 16.97 46.35 16.64L46.25 16.5C46.3289 16.5782 46.4024 16.6618 46.47 16.75C46.36 16.56 46.11 16.29 46.24 16.49L46.15 16.39C45.63 15.76 45.08 15.16 44.51 14.59C43.94 14.02 43.36 13.49 42.76 13C42.7323 12.9709 42.7021 12.9441 42.67 12.92L42.57 12.84H42.51C42.22 12.61 41.91 12.4 41.6 12.19C40.3796 11.3716 39.0916 10.6591 37.75 10.06L38.13 10.21L37.3 9.86998L37.75 10.06C35.9878 9.35092 34.1486 8.85086 32.27 8.56999H32.72L31.79 8.45997L32.27 8.52998C30.3268 8.30002 28.3632 8.30002 26.42 8.52998H26.65L25.94 8.60996H26.42C24.5346 8.88949 22.6886 9.3896 20.92 10.1L21.37 9.90998L20.54 10.25L20.92 10.1C19.574 10.6968 18.2825 11.4095 17.06 12.23L16.06 12.93H15.99L16.17 12.78C15.97 12.89 15.7 13.15 15.94 12.99L15.82 13.1C15.193 13.5042 14.5857 13.938 14 14.4C13.44 14.96 12.91 15.54 12.4 16.15L12.21 16.39V16.44C11.99 16.73 11.79 17.04 11.58 17.35C10.7776 18.5345 10.0784 19.7858 9.49 21.09C8.76782 22.879 8.2512 24.7443 7.95002 26.65C7.95002 26.51 7.95002 26.37 7.95002 26.23C7.95002 26.55 7.87001 26.85 7.82001 27.17C7.82001 26.99 7.88003 26.81 7.90003 26.65C7.66185 28.6429 7.66185 30.6571 7.90003 32.65L7.81 32.12C7.86 32.42 7.90001 32.74 7.94001 33.05C7.94001 32.92 7.94001 32.78 7.94001 32.65C8.23107 34.5318 8.73775 36.374 9.45002 38.14C10.0359 39.4486 10.7352 40.7034 11.54 41.89C11.76 42.24 11.99 42.56 12.24 42.89C12.2744 42.9301 12.3046 42.9737 12.33 43.02C12.26 42.94 12.17 42.85 12.12 42.78C12.23 42.96 12.44 43.18 12.38 43.07L12.45 43.13C12.6474 43.3712 12.7422 43.6802 12.7142 43.9906C12.6861 44.301 12.5374 44.5881 12.3 44.79L8.78998 47.79C8.66909 47.8917 8.52914 47.9684 8.3783 48.0155C8.22746 48.0626 8.06876 48.0792 7.91144 48.0643C7.75412 48.0494 7.60136 48.0033 7.46204 47.9288C7.32272 47.8542 7.19962 47.7526 7.09998 47.63C6.27047 46.6064 5.51207 45.5272 4.83002 44.4C1.78431 39.3476 0.386339 33.4727 0.830022 27.59C1.30354 21.553 3.6334 15.8103 7.5 11.15C11.259 6.67725 16.2977 3.46307 21.9382 1.93986C27.5788 0.416653 33.5505 0.657507 39.05 2.62998C44.6416 4.68954 49.48 8.39148 52.9301 13.25C56.2681 18.0831 58.0381 23.8263 58 29.7Z" fill="#EB603F"/>
</svg>
