<svg width="64" height="49" viewBox="0 0 64 49" fill="none" xmlns="http://www.w3.org/2000/svg">
<g clip-path="url(#clip0)">
<path d="M33.72 7.28H0.019989C0.279989 3.23 3.66999 0 7.77999 0H23.32C26.86 0 29.9 2.28 31.03 5.45C31.43 6.56 32.53 7.28 33.72 7.28Z" fill="#E05D44"/>
<path d="M63.03 15.06V40.64C63.03 44.93 59.53 48.43 55.25 48.43H7.78C3.5 48.43 0 44.93 0 40.64V7.28003H55.25C59.53 7.28003 63.03 10.78 63.03 15.06Z" fill="#EB603F"/>
<path d="M13.02 27.39C13.02 31.19 13.02 34.9799 13.02 38.78C13.02 39.32 13.02 39.85 13.02 40.39C13.02 41.49 13.98 42.5299 15.11 42.4799C16.24 42.43 17.2 41.5599 17.2 40.39C17.2 36.59 17.2 32.8 17.2 29C17.2 28.46 17.2 27.93 17.2 27.39C17.2 26.29 16.24 25.25 15.11 25.3C13.98 25.35 13.02 26.22 13.02 27.39Z" fill="white"/>
<path d="M21.61 31.7999C17.81 31.7999 14.02 31.7999 10.22 31.7999C9.68001 31.7999 9.15001 31.7999 8.61001 31.7999C7.51001 31.7999 6.47001 32.7599 6.52001 33.8899C6.57001 35.0199 7.44001 35.9799 8.61001 35.9799C12.41 35.9799 16.2 35.9799 20 35.9799C20.54 35.9799 21.07 35.9799 21.61 35.9799C22.71 35.9799 23.75 35.0199 23.7 33.8899C23.65 32.7599 22.78 31.7999 21.61 31.7999Z" fill="white"/>
</g>
<defs>
<clipPath id="clip0">
<rect width="63.03" height="48.43" fill="white"/>
</clipPath>
</defs>
</svg>
